<?xml version="1.0" encoding="UTF-8" standalone="no"?>
<!DOCTYPE svg PUBLIC "-//W3C//DTD SVG 1.1//EN"
 "http://www.w3.org/Graphics/SVG/1.1/DTD/svg11.dtd">
<!-- Generated by graphviz version 2.40.1 (20161225.0304)
 -->
<!-- Title: state transitions Pages: 1 -->
<svg width="340pt" height="434pt"
 viewBox="0.00 0.00 340.00 434.00" xmlns="http://www.w3.org/2000/svg" xmlns:xlink="http://www.w3.org/1999/xlink">
<g id="graph0" class="graph" transform="scale(1 1) rotate(0) translate(4 430)">
<title>state transitions</title>
<polygon fill="#ffffff" stroke="transparent" points="-4,4 -4,-430 336,-430 336,4 -4,4"/>
<g id="clust1" class="cluster state regular">
<title>cluster_state</title>
<path fill="none" stroke="#000000" stroke-width="2" d="M20,-8C20,-8 312,-8 312,-8 318,-8 324,-14 324,-20 324,-20 324,-406 324,-406 324,-412 318,-418 312,-418 312,-418 20,-418 20,-418 14,-418 8,-412 8,-406 8,-406 8,-20 8,-20 8,-14 14,-8 20,-8"/>
<text text-anchor="start" x="152.9944" y="-399.2" font-family="Helvetica,sans-Serif" font-size="12.00" fill="#000000">state</text>
</g>
<!-- state -->
<!-- RESET -->
<g id="node2" class="node state regular">
<title>RESET</title>
<polygon fill="#ffffff" fill-opacity="0.003922" stroke="transparent" stroke-width="2" points="150,-380 88,-380 88,-344 150,-344 150,-380"/>
<text text-anchor="start" x="98.999" y="-358.2" font-family="Helvetica,sans-Serif" font-size="12.00" fill="#000000">RESET</text>
<path fill="none" stroke="#000000" stroke-width="2" d="M100.3333,-345C100.3333,-345 137.6667,-345 137.6667,-345 143.3333,-345 149,-350.6667 149,-356.3333 149,-356.3333 149,-367.6667 149,-367.6667 149,-373.3333 143.3333,-379 137.6667,-379 137.6667,-379 100.3333,-379 100.3333,-379 94.6667,-379 89,-373.3333 89,-367.6667 89,-367.6667 89,-356.3333 89,-356.3333 89,-350.6667 94.6667,-345 100.3333,-345"/>
</g>
<!-- RESET&#45;&gt;RESET -->
<g id="edge1" class="edge transition">
<title>RESET&#45;&gt;RESET</title>
<path fill="none" stroke="#000000" d="M150.0304,-366.856C162.028,-367.0718 172,-365.4531 172,-362 172,-359.626 167.2867,-358.119 160.4422,-357.4792"/>
<polygon fill="#000000" stroke="#000000" points="160.1379,-353.9676 150.0304,-357.144 159.9126,-360.964 160.1379,-353.9676"/>
<text text-anchor="start" x="172" y="-359" font-family="Helvetica,sans-Serif" font-size="10.00" fill="#000000">instruction[19:18] == 2&#39;b00 &#160;&#160;</text>
</g>
<!-- DECODE -->
<g id="node3" class="node state regular">
<title>DECODE</title>
<polygon fill="#ffffff" fill-opacity="0.003922" stroke="transparent" stroke-width="2" points="178.5,-298 105.5,-298 105.5,-262 178.5,-262 178.5,-298"/>
<text text-anchor="start" x="116.8356" y="-276.2" font-family="Helvetica,sans-Serif" font-size="12.00" fill="#000000">DECODE</text>
<path fill="none" stroke="#000000" stroke-width="2" d="M117.8333,-263C117.8333,-263 166.1667,-263 166.1667,-263 171.8333,-263 177.5,-268.6667 177.5,-274.3333 177.5,-274.3333 177.5,-285.6667 177.5,-285.6667 177.5,-291.3333 171.8333,-297 166.1667,-297 166.1667,-297 117.8333,-297 117.8333,-297 112.1667,-297 106.5,-291.3333 106.5,-285.6667 106.5,-285.6667 106.5,-274.3333 106.5,-274.3333 106.5,-268.6667 112.1667,-263 117.8333,-263"/>
</g>
<!-- RESET&#45;&gt;DECODE -->
<g id="edge2" class="edge transition">
<title>RESET&#45;&gt;DECODE</title>
<path fill="none" stroke="#000000" d="M124.1044,-343.8015C127.0524,-333.2915 130.8225,-319.8503 134.1414,-308.0177"/>
<polygon fill="#000000" stroke="#000000" points="137.579,-308.7213 136.9098,-298.1476 130.8391,-306.8308 137.579,-308.7213"/>
<text text-anchor="start" x="132" y="-318" font-family="Helvetica,sans-Serif" font-size="10.00" fill="#000000">not (instruction[19:18] == 2&#39;b00) &#160;&#160;</text>
</g>
<!-- EXECUTE -->
<g id="node4" class="node state regular">
<title>EXECUTE</title>
<polygon fill="#ffffff" fill-opacity="0.003922" stroke="transparent" stroke-width="2" points="120,-216 42,-216 42,-180 120,-180 120,-216"/>
<text text-anchor="start" x="52.6662" y="-194.2" font-family="Helvetica,sans-Serif" font-size="12.00" fill="#000000">EXECUTE</text>
<path fill="none" stroke="#000000" stroke-width="2" d="M54.3333,-181C54.3333,-181 107.6667,-181 107.6667,-181 113.3333,-181 119,-186.6667 119,-192.3333 119,-192.3333 119,-203.6667 119,-203.6667 119,-209.3333 113.3333,-215 107.6667,-215 107.6667,-215 54.3333,-215 54.3333,-215 48.6667,-215 43,-209.3333 43,-203.6667 43,-203.6667 43,-192.3333 43,-192.3333 43,-186.6667 48.6667,-181 54.3333,-181"/>
</g>
<!-- DECODE&#45;&gt;EXECUTE -->
<g id="edge3" class="edge transition">
<title>DECODE&#45;&gt;EXECUTE</title>
<path fill="none" stroke="#000000" d="M128.4621,-261.8015C120.2488,-250.7606 109.6292,-236.4851 100.5184,-224.2378"/>
<polygon fill="#000000" stroke="#000000" points="103.2769,-222.082 94.5,-216.1476 97.6605,-226.2601 103.2769,-222.082"/>
<text text-anchor="middle" x="116.3895" y="-236" font-family="Helvetica,sans-Serif" font-size="10.00" fill="#000000"> </text>
</g>
<!-- MEM_ACCESS -->
<g id="node5" class="node state regular">
<title>MEM_ACCESS</title>
<polygon fill="#ffffff" fill-opacity="0.003922" stroke="transparent" stroke-width="2" points="292,-134 186,-134 186,-98 292,-98 292,-134"/>
<text text-anchor="start" x="197" y="-112.2" font-family="Helvetica,sans-Serif" font-size="12.00" fill="#000000">MEM_ACCESS</text>
<path fill="none" stroke="#000000" stroke-width="2" d="M198.3333,-99C198.3333,-99 279.6667,-99 279.6667,-99 285.3333,-99 291,-104.6667 291,-110.3333 291,-110.3333 291,-121.6667 291,-121.6667 291,-127.3333 285.3333,-133 279.6667,-133 279.6667,-133 198.3333,-133 198.3333,-133 192.6667,-133 187,-127.3333 187,-121.6667 187,-121.6667 187,-110.3333 187,-110.3333 187,-104.6667 192.6667,-99 198.3333,-99"/>
</g>
<!-- EXECUTE&#45;&gt;MEM_ACCESS -->
<g id="edge5" class="edge transition">
<title>EXECUTE&#45;&gt;MEM_ACCESS</title>
<path fill="none" stroke="#000000" d="M102.0326,-179.8553C116.8733,-167.7909 137.6595,-152.3245 158,-142 163.7042,-139.1047 169.7968,-136.4448 175.9831,-134.0236"/>
<polygon fill="#000000" stroke="#000000" points="177.5741,-137.167 185.7393,-130.4158 175.1461,-130.6015 177.5741,-137.167"/>
<text text-anchor="middle" x="142.3895" y="-154" font-family="Helvetica,sans-Serif" font-size="10.00" fill="#000000"> </text>
</g>
<!-- WRITE_BACK -->
<g id="node6" class="node state regular">
<title>WRITE_BACK</title>
<polygon fill="#ffffff" fill-opacity="0.003922" stroke="transparent" stroke-width="2" points="289,-52 189,-52 189,-16 289,-16 289,-52"/>
<text text-anchor="start" x="200" y="-30.2" font-family="Helvetica,sans-Serif" font-size="12.00" fill="#000000">WRITE_BACK</text>
<path fill="none" stroke="#000000" stroke-width="2" d="M201.3333,-17C201.3333,-17 276.6667,-17 276.6667,-17 282.3333,-17 288,-22.6667 288,-28.3333 288,-28.3333 288,-39.6667 288,-39.6667 288,-45.3333 282.3333,-51 276.6667,-51 276.6667,-51 201.3333,-51 201.3333,-51 195.6667,-51 190,-45.3333 190,-39.6667 190,-39.6667 190,-28.3333 190,-28.3333 190,-22.6667 195.6667,-17 201.3333,-17"/>
</g>
<!-- EXECUTE&#45;&gt;WRITE_BACK -->
<g id="edge4" class="edge transition">
<title>EXECUTE&#45;&gt;WRITE_BACK</title>
<path fill="none" stroke="#000000" d="M49.7499,-179.931C43.0811,-173.7584 38,-166.0771 38,-157 38,-157 38,-157 38,-75 38,-60.4812 119.554,-47.8233 178.7657,-40.5465"/>
<polygon fill="#000000" stroke="#000000" points="179.288,-44.009 188.7977,-39.3383 178.4509,-37.0592 179.288,-44.009"/>
<text text-anchor="start" x="38" y="-113" font-family="Helvetica,sans-Serif" font-size="10.00" fill="#000000">instruction[19:18] == 2&#39;b01 &#160;&#160;</text>
</g>
<!-- MEM_ACCESS&#45;&gt;DECODE -->
<g id="edge6" class="edge transition">
<title>MEM_ACCESS&#45;&gt;DECODE</title>
<path fill="none" stroke="#000000" d="M185.6931,-128.3117C173.4769,-134.412 164,-143.4961 164,-157 164,-239 164,-239 164,-239 164,-243.6701 162.878,-248.3219 161.1408,-252.7255"/>
<polygon fill="#000000" stroke="#000000" points="157.9044,-251.3716 156.5518,-261.8798 164.1621,-254.5086 157.9044,-251.3716"/>
<text text-anchor="start" x="164" y="-195" font-family="Helvetica,sans-Serif" font-size="10.00" fill="#000000">instruction[19:18] == 2&#39;b11 &#160;&#160;</text>
</g>
<!-- MEM_ACCESS&#45;&gt;WRITE_BACK -->
<g id="edge7" class="edge transition">
<title>MEM_ACCESS&#45;&gt;WRITE_BACK</title>
<path fill="none" stroke="#000000" d="M239,-97.8015C239,-87.3976 239,-74.1215 239,-62.3768"/>
<polygon fill="#000000" stroke="#000000" points="242.5001,-62.1476 239,-52.1476 235.5001,-62.1476 242.5001,-62.1476"/>
<text text-anchor="middle" x="240.3895" y="-72" font-family="Helvetica,sans-Serif" font-size="10.00" fill="#000000"> </text>
</g>
<!-- WRITE_BACK&#45;&gt;DECODE -->
<g id="edge8" class="edge transition">
<title>WRITE_BACK&#45;&gt;DECODE</title>
<path fill="none" stroke="#000000" d="M263.9766,-52.2166C277.8147,-63.7304 293.9953,-79.8395 303,-98 317.6451,-127.5362 313,-138.5324 313,-171.5 313,-239 313,-239 313,-239 313,-264.6337 239.4172,-274.2797 188.7892,-277.8828"/>
<polygon fill="#000000" stroke="#000000" points="188.4336,-274.3985 178.6838,-278.5447 188.8912,-281.3835 188.4336,-274.3985"/>
<text text-anchor="middle" x="314.3895" y="-154" font-family="Helvetica,sans-Serif" font-size="10.00" fill="#000000"> </text>
</g>
</g>
</svg>
